<?xml version="1.0" encoding="iso-8859-1"?>
<!-- Generator: Adobe Illustrator 19.0.0, SVG Export Plug-In . SVG Version: 6.00 Build 0)  -->
<svg version="1.1" id="Layer_1" xmlns="http://www.w3.org/2000/svg" xmlns:xlink="http://www.w3.org/1999/xlink" x="0px" y="0px"
	 viewBox="0 0 512 512" style="enable-background:new 0 0 512 512;" xml:space="preserve">
<g>
	<rect x="177.52" y="252.012" style="fill:#CCCCCC;" width="187.136" height="8"/>
	<polygon style="fill:#CCCCCC;" points="364.656,441.468 284.024,441.468 284.024,70.556 364.656,70.556 364.656,78.556 
		292.024,78.556 292.024,433.468 364.656,433.468 	"/>
</g>
<path style="fill:#BBBBBB;" d="M453.728,197.732L453.728,197.732c-32.184,0-58.272,26.088-58.272,58.264l0,0
	c0,32.184,26.088,58.264,58.264,58.264l0,0c32.192,0.016,58.28-26.072,58.28-58.256l0,0C512,223.82,485.912,197.732,453.728,197.732
	z"/>
<path style="fill:#333333;" d="M453.728,0.004L453.728,0.004c-32.184,0-58.272,26.088-58.272,58.264l0,0
	c0,32.184,26.088,58.264,58.264,58.264l0,0c32.184,0,58.264-26.088,58.264-58.264l0,0C512,26.092,485.912,0.004,453.728,0.004z"/>
<g>
	<path style="fill:#FF4F1A;" d="M453.728,395.468L453.728,395.468c-32.184,0-58.272,26.088-58.272,58.264l0,0
		c0,32.184,26.088,58.264,58.264,58.264l0,0c32.192,0.008,58.28-26.08,58.28-58.256l0,0
		C512,421.556,485.912,395.468,453.728,395.468z"/>
	<path style="fill:#FF4F1A;" d="M105.976,204.572c-28.408,0-51.432,23.032-51.432,51.432c0,28.408,23.032,51.432,51.432,51.432
		s51.432-23.032,51.432-51.432S134.376,204.572,105.976,204.572z M105.976,287.052c-17.144,0-31.048-13.904-31.048-31.048
		s13.904-31.048,31.048-31.048s31.048,13.904,31.048,31.048S123.12,287.052,105.976,287.052z"/>
</g>
<path style="fill:#666666;" d="M211.944,271.876v-31.768l-23.52-2.352c-2.152-9.784-6.024-18.912-11.248-27.096l14.992-18.312
	l-22.464-22.464l-18.296,14.976c-8.192-5.24-17.328-9.112-27.12-11.288l-2.352-23.472h-15.888h-0.136H90.024l-2.352,23.472
	c-9.8,2.168-18.936,6.04-27.128,11.288l-18.296-14.968l-22.464,22.464l14.984,18.312c-5.224,8.192-9.096,17.32-11.256,27.104
	L0,240.116v31.768l23.512,2.352c2.152,9.792,6.024,18.912,11.256,27.112L19.784,319.66l22.464,22.464l18.296-14.968
	c8.2,5.248,17.336,9.128,27.136,11.288l2.352,23.472h15.888h0.136h15.888l2.352-23.472c9.792-2.168,18.928-6.04,27.128-11.288
	l18.296,14.976l22.464-22.464l-14.992-18.32c5.224-8.192,9.088-17.312,11.24-27.096L211.944,271.876z M105.968,307.428
	c-28.408,0-51.432-23.032-51.432-51.432s23.032-51.432,51.432-51.432s51.432,23.032,51.432,51.432S134.376,307.428,105.968,307.428z
	"/>
<g>
</g>
<g>
</g>
<g>
</g>
<g>
</g>
<g>
</g>
<g>
</g>
<g>
</g>
<g>
</g>
<g>
</g>
<g>
</g>
<g>
</g>
<g>
</g>
<g>
</g>
<g>
</g>
<g>
</g>
</svg>
