<?xml version="1.0" encoding="iso-8859-1"?>
<!-- Generator: Adobe Illustrator 19.0.0, SVG Export Plug-In . SVG Version: 6.00 Build 0)  -->
<svg version="1.1" id="Layer_1" xmlns="http://www.w3.org/2000/svg" xmlns:xlink="http://www.w3.org/1999/xlink" x="0px" y="0px"
	 viewBox="0 0 512 512" style="enable-background:new 0 0 512 512;" xml:space="preserve">
<path style="fill:#A0772D;" d="M158.897,423.724h61.793V123.586h-61.793V423.724z"/>
<path style="fill:#BD9139;" d="M97.103,423.724h61.793V123.586H97.103V423.724z"/>
<path style="fill:#E65252;" d="M97.103,70.621H220.69V38.841c0-16.772-13.241-30.014-30.014-30.014h-63.559
	c-16.772,0-30.014,13.241-30.014,30.014V70.621z"/>
<path style="fill:#EDB691;" d="M97.103,423.724L97.103,423.724L158.897,512l61.793-88.276H97.103z"/>
<g>
	<path style="fill:#F4BA48;" d="M97.103,123.586H220.69V70.621H97.103V123.586z"/>
	<path style="fill:#F4BA48;" d="M402.538,512h-98.869c-6.179,0-12.359-5.297-12.359-12.359V17.655C291.31,7.945,299.255,0,308.966,0
		h88.276c9.71,0,17.655,7.945,17.655,17.655v481.986C414.897,506.703,409.6,512,402.538,512"/>
</g>
<g>
	<path style="fill:#BD9139;" d="M326.621,105.931h-26.483c-5.297,0-8.828-3.531-8.828-8.828s3.531-8.828,8.828-8.828h26.483
		c5.297,0,8.828,3.531,8.828,8.828S331.917,105.931,326.621,105.931"/>
	<path style="fill:#BD9139;" d="M344.276,141.241h-44.138c-5.297,0-8.828-3.531-8.828-8.828c0-5.297,3.531-8.828,8.828-8.828h44.138
		c5.297,0,8.828,3.531,8.828,8.828C353.103,137.71,349.572,141.241,344.276,141.241"/>
	<path style="fill:#BD9139;" d="M344.276,70.621h-44.138c-5.297,0-8.828-3.531-8.828-8.828s3.531-8.828,8.828-8.828h44.138
		c5.297,0,8.828,3.531,8.828,8.828S349.572,70.621,344.276,70.621"/>
	<path style="fill:#BD9139;" d="M326.621,176.552h-26.483c-5.297,0-8.828-3.531-8.828-8.828s3.531-8.828,8.828-8.828h26.483
		c5.297,0,8.828,3.531,8.828,8.828S331.917,176.552,326.621,176.552"/>
	<path style="fill:#BD9139;" d="M344.276,211.862h-44.138c-5.297,0-8.828-3.531-8.828-8.828s3.531-8.828,8.828-8.828h44.138
		c5.297,0,8.828,3.531,8.828,8.828S349.572,211.862,344.276,211.862"/>
	<path style="fill:#BD9139;" d="M326.621,247.172h-26.483c-5.297,0-8.828-3.531-8.828-8.828s3.531-8.828,8.828-8.828h26.483
		c5.297,0,8.828,3.531,8.828,8.828S331.917,247.172,326.621,247.172"/>
	<path style="fill:#BD9139;" d="M344.276,282.483h-44.138c-5.297,0-8.828-3.531-8.828-8.828c0-5.297,3.531-8.828,8.828-8.828h44.138
		c5.297,0,8.828,3.531,8.828,8.828C353.103,278.952,349.572,282.483,344.276,282.483"/>
	<path style="fill:#BD9139;" d="M326.621,317.793h-26.483c-5.297,0-8.828-3.531-8.828-8.828s3.531-8.828,8.828-8.828h26.483
		c5.297,0,8.828,3.531,8.828,8.828S331.917,317.793,326.621,317.793"/>
	<path style="fill:#BD9139;" d="M344.276,353.103h-44.138c-5.297,0-8.828-3.531-8.828-8.828s3.531-8.828,8.828-8.828h44.138
		c5.297,0,8.828,3.531,8.828,8.828S349.572,353.103,344.276,353.103"/>
	<path style="fill:#BD9139;" d="M326.621,388.414h-26.483c-5.297,0-8.828-3.531-8.828-8.828s3.531-8.828,8.828-8.828h26.483
		c5.297,0,8.828,3.531,8.828,8.828S331.917,388.414,326.621,388.414"/>
	<path style="fill:#BD9139;" d="M379.586,450.207c0-14.124-11.476-26.483-26.483-26.483s-26.483,11.476-26.483,26.483
		c0,14.124,11.476,26.483,26.483,26.483S379.586,464.331,379.586,450.207"/>
</g>
<g>
</g>
<g>
</g>
<g>
</g>
<g>
</g>
<g>
</g>
<g>
</g>
<g>
</g>
<g>
</g>
<g>
</g>
<g>
</g>
<g>
</g>
<g>
</g>
<g>
</g>
<g>
</g>
<g>
</g>
</svg>
