<?xml version="1.0" encoding="iso-8859-1"?>
<!-- Generator: Adobe Illustrator 19.0.0, SVG Export Plug-In . SVG Version: 6.00 Build 0)  -->
<svg version="1.1" id="Layer_1" xmlns="http://www.w3.org/2000/svg" xmlns:xlink="http://www.w3.org/1999/xlink" x="0px" y="0px"
	 viewBox="0 0 512 512" style="enable-background:new 0 0 512 512;" xml:space="preserve">
<path style="fill:#F4BA48;" d="M405.186,145.655C397.241,70.621,340.745,9.71,269.241,0.883C264.828,0,260.414,0,256,0
	s-8.828,0-13.241,0.883c-71.503,8.828-128,69.738-135.945,144.772c-5.297,53.848,13.241,102.4,46.786,136.828
	c18.538,19.421,36.193,44.138,40.607,71.503h123.586c5.297-27.366,22.069-52.083,40.607-71.503
	C391.945,248.055,410.483,199.503,405.186,145.655"/>
<path style="fill:#B79529;" d="M203.034,176.552c-9.71,0-17.655,7.945-17.655,17.655c0,9.71,7.945,17.655,17.655,17.655h17.655
	v-17.655C220.69,184.497,212.745,176.552,203.034,176.552L203.034,176.552z M291.31,211.862h17.655
	c9.71,0,17.655-7.945,17.655-17.655c0-9.71-7.945-17.655-17.655-17.655s-17.655,7.945-17.655,17.655V211.862z M238.345,353.103
	h35.31V229.517h-35.31V353.103z M282.483,370.759h-52.966c-5.297,0-8.828-3.531-8.828-8.828V229.517h-17.655
	c-19.421,0-35.31-15.89-35.31-35.31s15.89-35.31,35.31-35.31s35.31,15.89,35.31,35.31v17.655h35.31v-17.655
	c0-19.421,15.89-35.31,35.31-35.31s35.31,15.89,35.31,35.31s-15.89,35.31-35.31,35.31H291.31v132.414
	C291.31,367.228,287.779,370.759,282.483,370.759L282.483,370.759z"/>
<path style="fill:#556080;" d="M512,512H0v-52.966c0-19.421,15.89-35.31,35.31-35.31H476.69c19.421,0,35.31,15.89,35.31,35.31V512z"
	/>
<path style="fill:#E15649;" d="M105.931,423.724h-35.31v-38.841c0-7.945,6.179-14.124,14.124-14.124h7.062
	c7.945,0,14.124,6.179,14.124,14.124C105.931,384.883,105.931,423.724,105.931,423.724z"/>
<path style="fill:#7383BF;" d="M406.069,423.724h35.31v-38.841c0-7.945-6.179-14.124-14.124-14.124h-7.062
	c-7.945,0-14.124,6.179-14.124,14.124L406.069,423.724L406.069,423.724z"/>
<path style="fill:#E8EDEE;" d="M194.207,353.103v70.621h123.586v-35.31v-35.31H194.207z"/>
<g>
	<path style="fill:#CBD4D8;" d="M317.793,379.586H291.31c-5.297,0-8.828,3.531-8.828,8.828s3.531,8.828,8.828,8.828h26.483v-8.828
		V379.586z"/>
	<path style="fill:#CBD4D8;" d="M247.172,397.241c5.297,0,8.828-3.531,8.828-8.828s-3.531-8.828-8.828-8.828h-52.966v17.655H247.172
		z"/>
</g>
<g>
	<path style="fill:#7383BF;" d="M423.724,467.862c-5.297,0-8.828,3.531-8.828,8.828s3.531,8.828,8.828,8.828H512v-17.655H423.724z"
		/>
	<path style="fill:#7383BF;" d="M88.276,485.517c5.297,0,8.828-3.531,8.828-8.828s-3.531-8.828-8.828-8.828H0v17.655H88.276z"/>
</g>
<g>
</g>
<g>
</g>
<g>
</g>
<g>
</g>
<g>
</g>
<g>
</g>
<g>
</g>
<g>
</g>
<g>
</g>
<g>
</g>
<g>
</g>
<g>
</g>
<g>
</g>
<g>
</g>
<g>
</g>
</svg>
