<?xml version="1.0" encoding="iso-8859-1"?>
<!-- Generator: Adobe Illustrator 19.0.0, SVG Export Plug-In . SVG Version: 6.00 Build 0)  -->
<svg version="1.1" id="Layer_1" xmlns="http://www.w3.org/2000/svg" xmlns:xlink="http://www.w3.org/1999/xlink" x="0px" y="0px"
	 viewBox="0 0 482.033 482.033" style="enable-background:new 0 0 482.033 482.033;" xml:space="preserve">
<polygon style="fill:#E56353;" points="229.572,283.256 327.153,482.033 357.271,429.026 274.748,260.969 "/>
<g>
	<polygon style="fill:#D15241;" points="274.748,260.969 357.271,429.026 417.506,437.459 319.925,238.682 	"/>
	<polygon style="fill:#D15241;" points="252.461,283.256 154.88,482.033 124.762,429.026 207.285,260.969 	"/>
</g>
<polygon style="fill:#E56353;" points="207.285,260.969 124.762,429.026 64.527,437.459 162.108,238.682 "/>
<path style="fill:#FCD462;" d="M386.184,123.031L386.184,123.031c-10.24-10.24-15.661-23.492-15.661-37.948l0,0
	c0-29.515-24.094-53.609-53.609-53.609l0,0c-14.456,0-27.708-5.421-37.948-15.661l0,0c-21.082-21.082-54.814-21.082-75.896,0l0,0
	c-10.24,10.24-23.492,15.661-37.948,15.661l0,0c-29.515,0-53.609,24.094-53.609,53.609l0,0c0,14.456-5.421,27.708-15.661,37.948l0,0
	c-21.082,21.082-21.082,54.814,0,75.896l0,0c10.24,10.24,15.661,23.492,15.661,37.948l0,0c0,29.515,24.094,53.609,53.609,53.609l0,0
	c14.456,0,27.708,5.421,37.948,15.661l0,0c21.082,21.082,54.814,21.082,75.896,0l0,0c10.24-10.24,23.492-15.661,37.948-15.661l0,0
	c29.515,0,53.609-24.094,53.609-53.609l0,0c0-14.456,5.421-27.708,15.661-37.948l0,0
	C406.664,177.845,406.664,144.113,386.184,123.031z"/>
<path style="fill:#DC8744;" d="M241.016,275.426c-63.247,0-115.049-51.2-115.049-115.049S177.769,45.929,241.016,45.929
	s115.049,51.2,115.049,115.049S304.264,275.426,241.016,275.426z M241.016,63.398c-53.609,0-96.979,43.369-96.979,96.979
	s43.369,96.979,96.979,96.979s96.979-43.369,96.979-96.979C337.995,107.369,294.626,63.398,241.016,63.398z"/>
<g>
</g>
<g>
</g>
<g>
</g>
<g>
</g>
<g>
</g>
<g>
</g>
<g>
</g>
<g>
</g>
<g>
</g>
<g>
</g>
<g>
</g>
<g>
</g>
<g>
</g>
<g>
</g>
<g>
</g>
</svg>
