<?xml version="1.0" encoding="iso-8859-1"?>
<!-- Generator: Adobe Illustrator 16.0.0, SVG Export Plug-In . SVG Version: 6.00 Build 0)  -->
<!DOCTYPE svg PUBLIC "-//W3C//DTD SVG 1.1//EN" "http://www.w3.org/Graphics/SVG/1.1/DTD/svg11.dtd">
<svg xmlns="http://www.w3.org/2000/svg" xmlns:xlink="http://www.w3.org/1999/xlink" version="1.1" id="Capa_1" x="0px" y="0px" width="512px" height="512px" viewBox="0 0 32 32" style="enable-background:new 0 0 32 32;" xml:space="preserve">
<g>
	<path d="M27.136,11.856c1.756-0.29,5.659-1.328,4.721-4.762c-0.16-0.12-3.374,0.256-4.549,0.398   c0.001-0.148,0.009-0.292,0.009-0.442V6.386l-0.55-0.343c-3.847-2.401-7.49-2.67-10.85-2.807V3.233   c-0.007,0.001-0.014,0.002-0.021,0.002s-0.014-0.001-0.021-0.002v0.004c-3.359,0.137-7.003,0.405-10.85,2.807l-0.55,0.343v0.664   c0,0.154,0.008,0.301,0.01,0.453C3.18,7.346,0.294,7.016,0.144,7.129c-0.936,3.423,2.939,4.465,4.703,4.76v0.001   c-1.397-0.123-3.87-0.323-4.014-0.222c-1.171,3.824,3.857,4.584,5.109,4.713c0.001,0.002,0.002,0.004,0.003,0.008   c-1.419-0.123-3.729-0.308-3.866-0.209c-1.17,3.82,4.592,4.736,6.033,4.904c3.068,5.106,7.783,7.682,7.783,7.682   s4.724-2.578,7.791-7.695c0.961-0.095,7.473-0.887,6.234-4.926c-0.146-0.104-2.682,0.104-4.068,0.227   c0.001-0.003,0.001-0.005,0.002-0.007c0.729-0.057,6.564-0.644,5.313-4.731C31.021,11.531,28.529,11.734,27.136,11.856z    M15.917,26.023c-0.006,0.006-8.905-6.698-9.159-18.306c3.277-1.959,6.343-2.001,9.138-2.13c2.795,0.129,5.861,0.171,9.14,2.13   C24.779,19.325,15.917,26.023,15.917,26.023z" fill="#acacb3"/>
</g>
<g>
</g>
<g>
</g>
<g>
</g>
<g>
</g>
<g>
</g>
<g>
</g>
<g>
</g>
<g>
</g>
<g>
</g>
<g>
</g>
<g>
</g>
<g>
</g>
<g>
</g>
<g>
</g>
<g>
</g>
</svg>
